<?xml version="1.0" encoding="utf-8"?><!-- Uploaded to: SVG Repo, www.svgrepo.com, Generator: SVG Repo Mixer Tools -->
<svg fill="#000000" width="800px" height="800px" viewBox="0 0 24 24" id="campaign" data-name="Flat Line" xmlns="http://www.w3.org/2000/svg" class="icon flat-line"><path id="secondary" d="M4.41,13,5.84,20.2a1,1,0,0,0,1,.8H8a1,1,0,0,0,1-1V14H7A4,4,0,0,1,4.41,13Z" style="fill: rgb(44, 169, 188); stroke-width: 2;"></path><path id="secondary-2" data-name="secondary" d="M21,15.72V4.28a1,1,0,0,0-1.24-1L9,6v8l10.76,2.69A1,1,0,0,0,21,15.72Z" style="fill: rgb(44, 169, 188); stroke-width: 2;"></path><path id="primary" d="M9,14v6a1,1,0,0,1-1,1H6.82a1,1,0,0,1-1-.8L4.41,13" style="fill: none; stroke: rgb(0, 0, 0); stroke-linecap: round; stroke-linejoin: round; stroke-width: 2;"></path><path id="primary-2" data-name="primary" d="M19.76,16.69,9,14V6L19.76,3.31a1,1,0,0,1,1.24,1V15.72A1,1,0,0,1,19.76,16.69ZM9,6H7a4,4,0,0,0-4,4H3a4,4,0,0,0,4,4H9Z" style="fill: none; stroke: rgb(0, 0, 0); stroke-linecap: round; stroke-linejoin: round; stroke-width: 2;"></path></svg>